# xmcd
#
# Track frame offsets: 
#        150
#        6702
#        21657
#        37861
#        55433
#        74811
#        92010
#        109173
#        128599
#        131803
#        149399
#        165895
#        182174
#        201879
#        220156
#        236261
#        254682
#        269151
#        280925
#        301368
#        319026
#        336520
#
# Disc length: 4741 seconds
#
# Revision: 0
# Processed by: cddbd v1.5.2PL0 Copyright (c) Steve Scherf et al.
# Submitted via: ExactAudioCopy v1.1
#
DISCID=5e128316
DTITLE=Ne-Yo - Non Fiction
DYEAR=2015
DGENRE=R&B
TTITLE0=Non Fiction
TTITLE1=Everybody Loves - The Def of You (Interlude)
TTITLE2=Run - An Island (Interlude)
TTITLE3=Integrity
TTITLE4=One More
TTITLE5=Time Of Our Lives
TTITLE6=Who’s Taking You Home
TTITLE7=Coming With You
TTITLE8=Let You What… (Interlude)
TTITLE9=Take You There
TTITLE10=Good Morning - Gon’ Ride (Interlude)
TTITLE11=Make It Easy
TTITLE12=Money Can’t Buy
TTITLE13=Religious - Ratchet Wit Yo Friends (Interlude)
TTITLE14=She Knows
TTITLE15=She Said I'm Hood Tho
TTITLE16=Story Time
TTITLE17=Why
TTITLE18=Congratulations
TTITLE19=Worth It
TTITLE20=Body On You
TTITLE21=Ballerina
EXTD=
EXTT0=
EXTT1=
EXTT2=
EXTT3=
EXTT4=
EXTT5=
EXTT6=
EXTT7=
EXTT8=
EXTT9=
EXTT10=
EXTT11=
EXTT12=
EXTT13=
EXTT14=
EXTT15=
EXTT16=
EXTT17=
EXTT18=
EXTT19=
EXTT20=
EXTT21=
PLAYORDER=
